<svg id="Layer_1" data-name="Layer 1" xmlns="http://www.w3.org/2000/svg" viewBox="0 0 467.81 95.55"><defs><style>.cls-1{isolation:isolate;}.cls-2{fill:#231f20;}</style></defs><g id="Layer_2" data-name="Layer 2"><g id="Layer_1-2" data-name="Layer 1-2"><g class="cls-1"><path class="cls-2" d="M507.52,570.85a2.53,2.53,0,0,0-2.54,2.66v48.43a29.77,29.77,0,0,1-29.71,29.7H464.64A2.61,2.61,0,0,0,467.3,649V573.51a2.61,2.61,0,0,0-2.66-2.66h10.63v72.82a21.68,21.68,0,0,0,21.62-21.73V570.85Z" transform="translate(-464.64 -570.85)"/><path class="cls-2" d="M550.29,651.64H539.77a15,15,0,0,0-14.91-14.91h-6.71v14.91H507.52a2.53,2.53,0,0,0,2.66-2.54V573.51a2.61,2.61,0,0,0-2.66-2.66h7.28a32.91,32.91,0,0,1,19.07,59.76,22.84,22.84,0,0,1,13.87,19.18A2.66,2.66,0,0,0,550.29,651.64Zm-10.64-47.85a24.83,24.83,0,0,0-21.5-24.62v49.24A24.83,24.83,0,0,0,539.65,603.79Z" transform="translate(-464.64 -570.85)"/><path class="cls-2" d="M590.51,573.51V632.8a18.84,18.84,0,0,1-37.68,0V573.51a2.57,2.57,0,0,0-2.55-2.66h13.18c-2.54,0-2.54,2.66-2.54,2.66V632.8a10.81,10.81,0,1,0,21.61,0V573.51a2.61,2.61,0,0,0-2.66-2.66h13.3A2.61,2.61,0,0,0,590.51,573.51Z" transform="translate(-464.64 -570.85)"/><path class="cls-2" d="M636.28,651.64H625.64V600.79a21.93,21.93,0,0,0-21.84-22v70.51a2.4,2.4,0,0,0,2.54,2.31H593.16a2.44,2.44,0,0,0,2.55-2.31V573.16a2.41,2.41,0,0,0-2.55-2.31h10.52a29.84,29.84,0,0,1,22,9.59v-7.28a2.4,2.4,0,0,0-2.54-2.31h13.18a2.4,2.4,0,0,0-2.55,2.31v76.17A2.28,2.28,0,0,0,636.28,651.64Z" transform="translate(-464.64 -570.85)"/><path class="cls-2" d="M643.32,646.07a6.27,6.27,0,0,1,6.32-6.32,6.36,6.36,0,1,1,0,12.71A6.29,6.29,0,0,1,643.32,646.07Z" transform="translate(-464.64 -570.85)"/><path class="cls-2" d="M710.15,651.64h-5.41V645l.82-4.1h-1.64c-1.64,6.56-7.46,11.56-16.56,11.56-11.81,0-19.68-8.94-19.68-21.15s7.87-21.08,19.68-21.08c9.1,0,14.92,5,16.56,11.56h1.64l-.82-4.1V591.37h5.41Zm-21.64-36.82c-8.7,0-15.42,4.92-15.42,16.49s6.72,16.56,15.42,16.56,16.23-4.92,16.23-16.56S697.2,614.82,688.51,614.82Z" transform="translate(-464.64 -570.85)"/><path class="cls-2" d="M740.25,610.23c11.23,0,18.45,7.22,18.45,19.76v2.3H726.39c.49,8.28,4.18,15.58,14.76,15.58,7.22,0,11.89-3.61,13.53-10.41h5.41c-1.64,6.39-6.23,15-18.94,15-14.27,0-20.17-9.92-20.17-21.65C721,617.69,729,610.23,740.25,610.23Zm13,17.47c0-7.22-4.68-12.88-13-12.88-8.12,0-13.86,5.66-13.86,12.88Z" transform="translate(-464.64 -570.85)"/><path class="cls-2" d="M785.59,652.46c-12.79,0-18-6.15-18-15.82h5.42c0,7.87,4.42,11.23,12.54,11.23,6.89,0,10-1.64,10-6.23,0-6-6.15-7-12.8-9-7.7-2.38-13.28-4.84-13.28-11.89,0-6.23,5.25-10.5,14.19-10.5,12.38,0,15.9,7,15.9,13.37H794.2c0-6-3.61-8.78-10.49-8.78-4.84,0-8.78,1.48-8.78,5.58,0,4.26,2.54,5.49,9.1,7.63,8,2.62,17,4.42,17,13.2C801,647.21,797.4,652.46,785.59,652.46Z" transform="translate(-464.64 -570.85)"/><path class="cls-2" d="M808.55,651.64v-4.59H820V614.82l-8.12.82v-4.59l8.2-.82c3.69-.33,5,1.64,5,4.51v32.31h11.4v4.59Zm7.38-53.13a5.55,5.55,0,0,1,5.5-5.5,5.54,5.54,0,1,1-5.5,5.5Z" transform="translate(-464.64 -570.85)"/><path class="cls-2" d="M887.35,611.05v4.59h-3.6a8.31,8.31,0,0,0-5.58,1.81,14.56,14.56,0,0,1,3.12,9.35c0,9-6.81,14.67-19.27,19.27,9.51-1.73,18.77-.74,18.77,8.36,0,10.58-10.49,12-37.14,12v-4.59c22.71,0,31.73-.66,31.73-7.38,0-9.68-18.61-5-28.21-1.8l-1.39-4.1c6.07-2,12.05-4,18.12-6V640.9c-12.71,3-23.2-1.72-23.2-14.1,0-11.32,8.93-16.57,20.33-16.57A24.4,24.4,0,0,1,874.4,614c4.67-2.54,5.66-3,9.35-3ZM875.87,626.8c0-8.78-6.15-12-14.84-12s-14.92,3.2-14.92,12,6.23,12.05,14.92,12.05S875.87,635.65,875.87,626.8Z" transform="translate(-464.64 -570.85)"/><path class="cls-2" d="M901.13,633v18.61h-5.41V611.05h5.41v7.46l-.82,4.1H902c1.64-7.38,6.8-12.38,15.66-12.38s14.84,5,14.84,16v25.42H927V626.88c0-8.69-3.52-12.06-10.66-12.06C907.44,614.82,901.13,622.2,901.13,633Z" transform="translate(-464.64 -570.85)"/></g></g></g></svg>